<svg width="11" height="13" viewBox="0 0 11 13" fill="none" xmlns="http://www.w3.org/2000/svg">
<path d="M6.47767 12.4186C8.05545 11.0121 10.8625 8.1385 10.8625 5.50147C10.8625 4.04239 10.2903 2.64307 9.27172 1.61134C8.25317 0.579617 6.87171 0 5.43125 0C3.99079 0 2.60933 0.579617 1.59078 1.61134C0.572219 2.64307 2.14645e-08 4.04239 0 5.50147C0 8.1385 2.80615 11.0121 4.38483 12.4186C4.67279 12.679 5.04527 12.8229 5.43125 12.8229C5.81723 12.8229 6.18971 12.679 6.47767 12.4186ZM3.62083 5.50147C3.62083 5.01511 3.81157 4.54867 4.15109 4.20476C4.49061 3.86085 4.9511 3.66765 5.43125 3.66765C5.9114 3.66765 6.37189 3.86085 6.71141 4.20476C7.05093 4.54867 7.24167 5.01511 7.24167 5.50147C7.24167 5.98783 7.05093 6.45427 6.71141 6.79818C6.37189 7.14208 5.9114 7.33529 5.43125 7.33529C4.9511 7.33529 4.49061 7.14208 4.15109 6.79818C3.81157 6.45427 3.62083 5.98783 3.62083 5.50147Z" fill="white"/>
</svg>
