<svg width="14" height="14" viewBox="0 0 14 14" fill="none" xmlns="http://www.w3.org/2000/svg">
<path d="M0.785156 11.357C0.785156 10.5721 1.09728 9.81933 1.65285 9.2643C2.20843 8.70927 2.96195 8.39746 3.74766 8.39746H9.67266C10.4584 8.39746 11.2119 8.70927 11.7675 9.2643C12.323 9.81933 12.6352 10.5721 12.6352 11.357C12.6352 11.7495 12.4791 12.1259 12.2013 12.4034C11.9235 12.6809 11.5468 12.8368 11.1539 12.8368H2.26641C1.87355 12.8368 1.49679 12.6809 1.219 12.4034C0.941216 12.1259 0.785156 11.7495 0.785156 11.357Z" stroke="#FF543E" stroke-width="1.3" stroke-linejoin="round"/>
<path d="M6.71016 5.43937C7.93726 5.43937 8.93203 4.44558 8.93203 3.21969C8.93203 1.99379 7.93726 1 6.71016 1C5.48305 1 4.48828 1.99379 4.48828 3.21969C4.48828 4.44558 5.48305 5.43937 6.71016 5.43937Z" stroke="#FF543E" stroke-width="1.3"/>
</svg>
