<svg width="15" height="15" viewBox="0 0 15 15" fill="none" xmlns="http://www.w3.org/2000/svg">
<path d="M8.20702 0.979237C8.01949 0.794119 7.76519 0.690125 7.50002 0.690125C7.23486 0.690125 6.98055 0.794119 6.79302 0.979237L0.146021 7.54185C0.0995333 7.58775 0.0626571 7.64225 0.037498 7.70223C0.0123389 7.76221 -0.000610352 7.82649 -0.000610352 7.89141C-0.000610352 7.95633 0.0123389 8.02061 0.037498 8.08059C0.0626571 8.14056 0.0995333 8.19506 0.146021 8.24097C0.239908 8.33367 0.367245 8.38576 0.500021 8.38576C0.565765 8.38576 0.630865 8.37297 0.691605 8.34813C0.752344 8.32328 0.807533 8.28687 0.854021 8.24097L7.50002 1.67737L14.146 8.24097C14.2399 8.33367 14.3672 8.38576 14.5 8.38576C14.6328 8.38576 14.7601 8.33367 14.854 8.24097C14.9479 8.14826 15.0007 8.02252 15.0007 7.89141C15.0007 7.7603 14.9479 7.63456 14.854 7.54185L12.5 5.21837V1.96669C12.5 1.83575 12.4473 1.71016 12.3536 1.61757C12.2598 1.52498 12.1326 1.47296 12 1.47296H11C10.8674 1.47296 10.7402 1.52498 10.6465 1.61757C10.5527 1.71016 10.5 1.83575 10.5 1.96669V3.24347L8.20702 0.979237Z" fill="white"/>
<path d="M7.5 2.74973L13.5 8.67444V12.8287C13.5 13.2215 13.342 13.5982 13.0607 13.876C12.7794 14.1538 12.3978 14.3098 12 14.3098H3C2.60218 14.3098 2.22064 14.1538 1.93934 13.876C1.65804 13.5982 1.5 13.2215 1.5 12.8287V8.67444L7.5 2.74973Z" fill="white"/>
</svg>
