<svg width="15" height="15" viewBox="0 0 15 15" fill="none" xmlns="http://www.w3.org/2000/svg">
<path d="M14.7663 0.0920759C14.9504 0.226004 15.0258 0.404576 14.9923 0.62779L12.8495 13.4849C12.8216 13.6468 12.7323 13.7723 12.5816 13.8616C12.5035 13.9062 12.417 13.9286 12.3221 13.9286C12.2607 13.9286 12.1938 13.9146 12.1212 13.8867L8.32945 12.3382L6.30382 14.8075C6.20338 14.9358 6.06666 15 5.89367 15C5.82113 15 5.75975 14.9888 5.70953 14.9665C5.6035 14.9275 5.5184 14.8619 5.45423 14.7698C5.39006 14.6777 5.35797 14.5759 5.35797 14.4643V11.543L12.59 2.67857L3.64204 10.4213L0.335745 9.06529C0.129276 8.98716 0.0176708 8.8337 0.000930042 8.60491C-0.0102305 8.3817 0.0790536 8.21708 0.268782 8.11105L14.1971 0.0753348C14.2808 0.0251116 14.3701 0 14.4649 0C14.5765 0 14.677 0.030692 14.7663 0.0920759Z" fill="white"/>
</svg>
