<svg width="17" height="18" viewBox="0 0 17 18" fill="none" xmlns="http://www.w3.org/2000/svg">
<path d="M13.1187 4.61682C13.0313 4.61682 12.9476 4.58258 12.8858 4.52164C12.824 4.46069 12.7893 4.37802 12.7893 4.29183C12.7893 4.20563 12.824 4.12297 12.8858 4.06202C12.9476 4.00107 13.0313 3.96683 13.1187 3.96683M13.1187 4.61682C13.206 4.61682 13.2898 4.58258 13.3516 4.52164C13.4134 4.46069 13.4481 4.37802 13.4481 4.29183C13.4481 4.20563 13.4134 4.12297 13.3516 4.06202C13.2898 4.00107 13.206 3.96683 13.1187 3.96683" stroke="white" stroke-linecap="round" stroke-linejoin="round"/>
<path d="M0.65134 4.33924C0.65134 3.45362 1.008 2.60427 1.64286 1.97804C2.27771 1.35181 3.13876 1 4.03658 1H13.0648C13.5093 1 13.9495 1.08637 14.3603 1.25418C14.771 1.422 15.1442 1.66796 15.4585 1.97804C15.7729 2.28812 16.0222 2.65623 16.1923 3.06137C16.3625 3.46651 16.45 3.90073 16.45 4.33924V13.2448C16.45 14.1304 16.0934 14.9797 15.4585 15.606C14.8237 16.2322 13.9626 16.584 13.0648 16.584H4.03527C3.13745 16.584 2.2764 16.2322 1.64154 15.606C1.00668 14.9797 0.650024 14.1304 0.650024 13.2448V4.33794L0.65134 4.33924Z" stroke="white" stroke-linecap="round" stroke-linejoin="round"/>
<path d="M5.19409 8.7924C5.19409 9.22699 5.28087 9.65733 5.44948 10.0588C5.61808 10.4604 5.8652 10.8252 6.17674 11.1325C6.48828 11.4398 6.85813 11.6836 7.26518 11.8499C7.67222 12.0162 8.10849 12.1018 8.54908 12.1018C8.98966 12.1018 9.42593 12.0162 9.83297 11.8499C10.24 11.6836 10.6099 11.4398 10.9214 11.1325C11.2329 10.8252 11.4801 10.4604 11.6487 10.0588C11.8173 9.65733 11.9041 9.22699 11.9041 8.7924C11.9041 7.91469 11.5506 7.07293 10.9214 6.4523C10.2922 5.83167 9.43887 5.483 8.54908 5.483C7.65928 5.483 6.80593 5.83167 6.17674 6.4523C5.54756 7.07293 5.19409 7.91469 5.19409 8.7924Z" stroke="white" stroke-linecap="round" stroke-linejoin="round"/>
</svg>
