<svg width="18" height="18" viewBox="0 0 18 18" fill="none" xmlns="http://www.w3.org/2000/svg">
<path d="M13.6248 4.66568C13.5364 4.66568 13.4517 4.63102 13.3892 4.56933C13.3268 4.50765 13.2917 4.42398 13.2917 4.33674C13.2917 4.24951 13.3268 4.16584 13.3892 4.10415C13.4517 4.04247 13.5364 4.00781 13.6248 4.00781M13.6248 4.66568C13.7131 4.66568 13.7978 4.63102 13.8603 4.56933C13.9227 4.50765 13.9578 4.42398 13.9578 4.33674C13.9578 4.24951 13.9227 4.16584 13.8603 4.10415C13.7978 4.04247 13.7131 4.00781 13.6248 4.00781" stroke="white" stroke-linecap="round" stroke-linejoin="round"/>
<path d="M1.00133 4.38536C1.00133 3.48751 1.36251 2.62643 2.0054 1.99155C2.64829 1.35667 3.52024 1 4.42943 1H13.5719C14.0221 1 14.4679 1.08757 14.8838 1.2577C15.2997 1.42783 15.6776 1.67719 15.9959 1.99155C16.3143 2.30591 16.5668 2.67911 16.7391 3.08984C16.9113 3.50057 17 3.94079 17 4.38536V13.4139C17 14.3117 16.6388 15.1728 15.9959 15.8077C15.353 16.4426 14.4811 16.7992 13.5719 16.7992H4.4281C3.51891 16.7992 2.64696 16.4426 2.00407 15.8077C1.36117 15.1728 1 14.3117 1 13.4139V4.38405L1.00133 4.38536Z" stroke="white" stroke-linecap="round" stroke-linejoin="round"/>
<path d="M5.60069 8.90003C5.60069 9.34062 5.68857 9.77691 5.85931 10.184C6.03005 10.591 6.2803 10.9609 6.59578 11.2724C6.91127 11.584 7.2858 11.8311 7.698 11.9997C8.11019 12.1683 8.55199 12.2551 8.99814 12.2551C9.4443 12.2551 9.8861 12.1683 10.2983 11.9997C10.7105 11.8311 11.085 11.584 11.4005 11.2724C11.716 10.9609 11.9662 10.591 12.137 10.184C12.3077 9.77691 12.3956 9.34062 12.3956 8.90003C12.3956 8.0102 12.0377 7.15681 11.4005 6.52761C10.7634 5.89841 9.89921 5.54492 8.99814 5.54492C8.09708 5.54492 7.23293 5.89841 6.59578 6.52761C5.95864 7.15681 5.60069 8.0102 5.60069 8.90003Z" stroke="white" stroke-linecap="round" stroke-linejoin="round"/>
</svg>
