<svg width="16" height="16" viewBox="0 0 16 16" fill="none" xmlns="http://www.w3.org/2000/svg">
<path d="M0 1.22579C0 0.600734 0.526 0.094171 1.175 0.094171H14.825C15.474 0.094171 16 0.600734 16 1.22579V14.7618C16 15.3869 15.474 15.8934 14.825 15.8934H1.175C0.526 15.8934 0 15.3869 0 14.7618V1.22579ZM4.943 13.3201V6.18577H2.542V13.3201H4.943ZM3.743 5.21115C4.58 5.21115 5.101 4.6641 5.101 3.97881C5.086 3.27871 4.581 2.74647 3.759 2.74647C2.937 2.74647 2.4 3.27969 2.4 3.97881C2.4 4.6641 2.921 5.21115 3.727 5.21115H3.743ZM8.651 13.3201V9.33574C8.651 9.12245 8.667 8.90916 8.731 8.75709C8.904 8.3315 9.299 7.89011 9.963 7.89011C10.832 7.89011 11.179 8.54381 11.179 9.50361V13.3201H13.58V9.22811C13.58 7.03596 12.396 6.01691 10.816 6.01691C9.542 6.01691 8.971 6.70813 8.651 7.19494V7.21963H8.635L8.651 7.19494V6.18577H6.251C6.281 6.85526 6.251 13.3201 6.251 13.3201H8.651Z" fill="white"/>
</svg>
