<svg width="16" height="16" viewBox="0 0 16 16" fill="none" xmlns="http://www.w3.org/2000/svg">
<path d="M0 1.13162C0 0.506563 0.526 0 1.175 0H14.825C15.474 0 16 0.506563 16 1.13162V14.6676C16 15.2927 15.474 15.7992 14.825 15.7992H1.175C0.526 15.7992 0 15.2927 0 14.6676V1.13162ZM4.943 13.2259V6.0916H2.542V13.2259H4.943ZM3.743 5.11698C4.58 5.11698 5.101 4.56993 5.101 3.88464C5.086 3.18454 4.581 2.6523 3.759 2.6523C2.937 2.6523 2.4 3.18552 2.4 3.88464C2.4 4.56993 2.921 5.11698 3.727 5.11698H3.743ZM8.651 13.2259V9.24157C8.651 9.02828 8.667 8.81499 8.731 8.66292C8.904 8.23733 9.299 7.79594 9.963 7.79594C10.832 7.79594 11.179 8.44963 11.179 9.40944V13.2259H13.58V9.13394C13.58 6.94179 12.396 5.92274 10.816 5.92274C9.542 5.92274 8.971 6.61396 8.651 7.10077V7.12546H8.635L8.651 7.10077V6.0916H6.251C6.281 6.76109 6.251 13.2259 6.251 13.2259H8.651Z" fill="white"/>
</svg>
