<svg width="17" height="17" viewBox="0 0 17 17" fill="none" xmlns="http://www.w3.org/2000/svg">
<path d="M0.832633 7.20928C2.75281 11.2228 6.16403 14.4039 10.3986 16.1299L11.0786 16.4208C11.8317 16.7428 12.6789 16.7992 13.471 16.5802C14.2631 16.3612 14.9493 15.8808 15.4086 15.2237L16.2976 13.9526C16.4367 13.7532 16.4931 13.5111 16.4555 13.2739C16.4179 13.0367 16.2892 12.8216 16.0946 12.6709L13.0826 10.338C12.9777 10.2568 12.8568 10.1968 12.7272 10.1616C12.5975 10.1264 12.4618 10.1167 12.3281 10.1331C12.1945 10.1496 12.0657 10.1917 11.9494 10.2571C11.8332 10.3225 11.7319 10.4098 11.6516 10.5137L10.7196 11.7205C8.32724 10.5862 6.39076 8.72672 5.20963 6.42973L6.46563 5.53497C6.57388 5.45794 6.66479 5.3607 6.73291 5.24909C6.80104 5.13749 6.84496 5.01381 6.86205 4.8855C6.87915 4.75719 6.86905 4.62688 6.83238 4.50241C6.7957 4.37793 6.7332 4.26186 6.64863 4.16116L4.21863 1.26952C4.06173 1.08275 3.83766 0.959155 3.59057 0.923084C3.34348 0.887012 3.09127 0.941079 2.88363 1.07463L1.55063 1.93291C0.862033 2.37623 0.359722 3.03984 0.133184 3.80553C-0.0933534 4.57121 -0.0294068 5.38923 0.313633 6.11387L0.832633 7.20928Z" fill="#FF5A3C"/>
</svg>
