<svg width="17" height="16" viewBox="0 0 17 16" fill="none" xmlns="http://www.w3.org/2000/svg">
<path d="M0.832633 6.29711C2.75281 10.3106 6.16403 13.4917 10.3986 15.2178L11.0786 15.5087C11.8317 15.8306 12.6789 15.887 13.471 15.668C14.2631 15.449 14.9493 14.9686 15.4086 14.3115L16.2976 13.0404C16.4367 12.8411 16.4931 12.5989 16.4555 12.3617C16.4179 12.1245 16.2892 11.9094 16.0946 11.7588L13.0826 9.42587C12.9777 9.34468 12.8568 9.28468 12.7272 9.24947C12.5975 9.21426 12.4618 9.20457 12.3281 9.22098C12.1945 9.23738 12.0657 9.27956 11.9494 9.34496C11.8332 9.41036 11.7319 9.49764 11.6516 9.60156L10.7196 10.8083C8.32724 9.67398 6.39076 7.81455 5.20963 5.51756L6.46563 4.6228C6.57388 4.54577 6.66479 4.44853 6.73291 4.33692C6.80104 4.22531 6.84496 4.10164 6.86205 3.97333C6.87915 3.84502 6.86905 3.71471 6.83238 3.59024C6.7957 3.46576 6.7332 3.34969 6.64863 3.24899L4.21863 0.357352C4.06173 0.17058 3.83766 0.0469846 3.59057 0.0109131C3.34348 -0.0251584 3.09127 0.0289088 2.88363 0.162464L1.55063 1.02074C0.862033 1.46406 0.359722 2.12767 0.133184 2.89335C-0.0933534 3.65904 -0.0294068 4.47706 0.313633 5.2017L0.832633 6.29711Z" fill="white"/>
</svg>
