<svg width="16" height="17" viewBox="0 0 16 17" fill="none" xmlns="http://www.w3.org/2000/svg">
<path fill-rule="evenodd" clip-rule="evenodd" d="M3.01401 0.0241716C2.65805 0.0238165 2.30786 0.11492 1.99649 0.288886C1.67718 0.45301 1.40818 0.701668 1.21832 1.0082C1.02847 1.31474 0.924912 1.6676 0.918762 2.02896V14.9939C0.924912 15.3552 1.02847 15.7081 1.21832 16.0146C1.40818 16.3212 1.67718 16.5698 1.99649 16.734C2.31351 16.9115 2.67079 17.0031 3.03341 16.9997C3.39603 16.9963 3.75157 16.898 4.06525 16.7145L14.4572 10.2327C14.7779 10.0697 15.0474 9.82011 15.2357 9.51172C15.4239 9.20334 15.5236 8.84829 15.5234 8.48615C15.5233 8.12402 15.4234 7.76904 15.235 7.46079C15.0465 7.15254 14.7768 6.90313 14.456 6.74039L4.06405 0.3071C3.74481 0.121295 3.38261 0.023702 3.01401 0.0241716Z" fill="#FF543E"/>
</svg>
