<svg width="15" height="11" viewBox="0 0 15 11" fill="none" xmlns="http://www.w3.org/2000/svg">
<path d="M2.93891 3.39104C3.2139 3.39104 3.47764 3.28386 3.67209 3.09308C3.86654 2.90229 3.97578 2.64354 3.97578 2.37373C3.97578 2.10392 3.86654 1.84516 3.67209 1.65438C3.47764 1.4636 3.2139 1.35642 2.93891 1.35642C2.66391 1.35642 2.40018 1.4636 2.20572 1.65438C2.01127 1.84516 1.90203 2.10392 1.90203 2.37373C1.90203 2.64354 2.01127 2.90229 2.20572 3.09308C2.40018 3.28386 2.66391 3.39104 2.93891 3.39104ZM11.1717 5.14082C11.4205 5.38497 11.5795 5.72408 11.5795 6.10387C11.5795 6.47689 11.4275 6.81599 11.1717 7.06015L7.71544 10.4512C7.58723 10.5776 7.43482 10.678 7.26696 10.7464C7.0991 10.8149 6.91911 10.8501 6.73732 10.8501C6.55554 10.8501 6.37555 10.8149 6.20769 10.7464C6.03983 10.678 5.88742 10.5776 5.75921 10.4512L0.927369 5.71051C0.671606 5.45958 0.519531 5.12047 0.519531 4.74746V1.35642C0.519531 0.603605 1.13474 0 1.90203 0H5.35828C5.73847 0 6.08409 0.149206 6.33294 0.393361L11.1717 5.14082ZM8.49656 1.15974L9.18781 0.481528L13.9367 5.14082C14.1925 5.38497 14.3445 5.73086 14.3445 6.10387C14.3445 6.47689 14.1925 6.81599 13.9436 7.06015L10.2247 10.7089L9.53343 10.0307L13.4805 6.10387L8.49656 1.15974Z" fill="#FF543E"/>
</svg>
