<svg width="18" height="16" viewBox="0 0 18 16" fill="none" xmlns="http://www.w3.org/2000/svg">
<path d="M9.45487 0.0133313C10.5847 0 11.708 0.00790005 12.8301 0C12.898 1.00775 13.3733 2.03426 14.3406 2.74675C15.3059 3.47701 16.6714 3.81128 18 3.92435V6.57531C16.7549 6.5442 15.5041 6.3467 14.3742 5.93787C13.8822 5.76802 13.4238 5.54929 12.9751 5.32562C12.9693 7.24928 12.9854 9.17047 12.9589 11.0862C12.8916 12.0066 12.4934 12.9225 11.7915 13.6809C10.6624 14.9434 8.70252 15.7665 6.68958 15.7922C5.45488 15.846 4.22148 15.5893 3.16936 15.1162C1.42576 14.3322 0.198829 12.8968 0.0201311 11.3563C-0.00263793 11.0301 -0.00609457 10.7032 0.00977177 10.3767C0.165161 9.12406 0.97772 7.92572 2.23897 7.11053C3.66855 6.16105 5.67113 5.70877 7.54617 5.97638C7.56365 6.95155 7.5125 7.92572 7.5125 8.90088C6.65591 8.68956 5.65495 8.74881 4.90649 9.14529C4.35896 9.42044 3.94516 9.82518 3.72876 10.2972C3.55006 10.631 3.60121 11.0018 3.61157 11.3563C3.81682 12.4366 5.17907 13.3447 6.63325 13.2464C7.59732 13.2385 8.52124 12.8119 9.02366 12.1873C9.18617 11.9686 9.36811 11.7449 9.37782 11.4877C9.46264 10.3101 9.42897 9.13739 9.43933 7.95979C9.44645 5.30587 9.42897 2.65935 9.45552 0.0138251L9.45487 0.0133313Z" fill="white"/>
</svg>
