<svg width="18" height="16" viewBox="0 0 18 16" fill="none" xmlns="http://www.w3.org/2000/svg">
<path d="M9.45487 0.107502C10.5847 0.094171 11.708 0.102071 12.8301 0.094171C12.898 1.10192 13.3733 2.12843 14.3406 2.84092C15.3059 3.57118 16.6714 3.90545 18 4.01852V6.66948C16.7549 6.63837 15.5041 6.44087 14.3742 6.03204C13.8822 5.86219 13.4238 5.64346 12.9751 5.41979C12.9693 7.34345 12.9854 9.26464 12.9589 11.1804C12.8916 12.1008 12.4934 13.0167 11.7915 13.7751C10.6624 15.0376 8.70252 15.8607 6.68958 15.8864C5.45488 15.9402 4.22148 15.6834 3.16936 15.2104C1.42576 14.4263 0.198829 12.991 0.0201311 11.4505C-0.00263793 11.1242 -0.00609457 10.7974 0.00977177 10.4709C0.165161 9.21823 0.97772 8.01989 2.23897 7.20471C3.66855 6.25522 5.67113 5.80294 7.54617 6.07056C7.56365 7.04572 7.5125 8.01989 7.5125 8.99505C6.65591 8.78373 5.65495 8.84298 4.90649 9.23946C4.35896 9.51461 3.94516 9.91935 3.72876 10.3914C3.55006 10.7252 3.60121 11.096 3.61157 11.4505C3.81682 12.5308 5.17907 13.4388 6.63325 13.3406C7.59732 13.3327 8.52124 12.9061 9.02366 12.2815C9.18617 12.0627 9.36811 11.8391 9.37782 11.5818C9.46264 10.4042 9.42897 9.23156 9.43933 8.05396C9.44645 5.40004 9.42897 2.75352 9.45552 0.107996L9.45487 0.107502Z" fill="white"/>
</svg>
