<svg width="14" height="14" viewBox="0 0 14 14" fill="none" xmlns="http://www.w3.org/2000/svg">
<path d="M11.0846 2.33366H9.91797V1.75033C9.91797 1.59562 9.85651 1.44724 9.74712 1.33785C9.63772 1.22845 9.48935 1.16699 9.33464 1.16699C9.17993 1.16699 9.03155 1.22845 8.92216 1.33785C8.81276 1.44724 8.7513 1.59562 8.7513 1.75033V2.33366H5.2513V1.75033C5.2513 1.59562 5.18984 1.44724 5.08045 1.33785C4.97105 1.22845 4.82268 1.16699 4.66797 1.16699C4.51326 1.16699 4.36489 1.22845 4.25549 1.33785C4.14609 1.44724 4.08464 1.59562 4.08464 1.75033V2.33366H2.91797C2.45384 2.33366 2.00872 2.51803 1.68053 2.84622C1.35234 3.17441 1.16797 3.61953 1.16797 4.08366V11.0837C1.16797 11.5478 1.35234 11.9929 1.68053 12.3211C2.00872 12.6493 2.45384 12.8337 2.91797 12.8337H11.0846C11.5488 12.8337 11.9939 12.6493 12.3221 12.3211C12.6503 11.9929 12.8346 11.5478 12.8346 11.0837V4.08366C12.8346 3.61953 12.6503 3.17441 12.3221 2.84622C11.9939 2.51803 11.5488 2.33366 11.0846 2.33366ZM11.668 11.0837C11.668 11.2384 11.6065 11.3867 11.4971 11.4961C11.3877 11.6055 11.2393 11.667 11.0846 11.667H2.91797C2.76326 11.667 2.61489 11.6055 2.50549 11.4961C2.39609 11.3867 2.33464 11.2384 2.33464 11.0837V7.00033H11.668V11.0837ZM11.668 5.83366H2.33464V4.08366C2.33464 3.92895 2.39609 3.78058 2.50549 3.67118C2.61489 3.56178 2.76326 3.50033 2.91797 3.50033H4.08464V4.08366C4.08464 4.23837 4.14609 4.38674 4.25549 4.49614C4.36489 4.60553 4.51326 4.66699 4.66797 4.66699C4.82268 4.66699 4.97105 4.60553 5.08045 4.49614C5.18984 4.38674 5.2513 4.23837 5.2513 4.08366V3.50033H8.7513V4.08366C8.7513 4.23837 8.81276 4.38674 8.92216 4.49614C9.03155 4.60553 9.17993 4.66699 9.33464 4.66699C9.48935 4.66699 9.63772 4.60553 9.74712 4.49614C9.85651 4.38674 9.91797 4.23837 9.91797 4.08366V3.50033H11.0846C11.2393 3.50033 11.3877 3.56178 11.4971 3.67118C11.6065 3.78058 11.668 3.92895 11.668 4.08366V5.83366Z" fill="#FF543E"/>
</svg>
