<svg width="20" height="14" viewBox="0 0 20 14" fill="none" xmlns="http://www.w3.org/2000/svg">
<path d="M8 9.95601L13.19 6.99365L8 4.03129V9.95601ZM19.56 2.22425C19.69 2.68835 19.78 3.31045 19.84 4.10041C19.91 4.89037 19.94 5.57171 19.94 6.16419L20 6.99365C20 9.15617 19.84 10.746 19.56 11.763C19.31 12.6518 18.73 13.2245 17.83 13.4713C17.36 13.5997 16.5 13.6886 15.18 13.7478C13.88 13.8169 12.69 13.8466 11.59 13.8466L10 13.9058C5.81 13.9058 3.2 13.7478 2.17 13.4713C1.27 13.2245 0.69 12.6518 0.44 11.763C0.31 11.2989 0.22 10.6768 0.16 9.88688C0.0900001 9.09692 0.0599999 8.41558 0.0599999 7.82311L0 6.99365C0 4.83112 0.16 3.24133 0.44 2.22425C0.69 1.33554 1.27 0.762819 2.17 0.515956C2.64 0.387587 3.5 0.298716 4.82 0.239469C6.12 0.170347 7.31 0.140723 8.41 0.140723L10 0.0814762C14.19 0.0814762 16.8 0.239469 17.83 0.515956C18.73 0.762819 19.31 1.33554 19.56 2.22425Z" fill="white"/>
</svg>
