<svg width="20" height="15" viewBox="0 0 20 15" fill="none" xmlns="http://www.w3.org/2000/svg">
<path d="M8 10.8618L13.19 7.89948L8 4.93712V10.8618ZM19.56 3.13008C19.69 3.59418 19.78 4.21628 19.84 5.00624C19.91 5.7962 19.94 6.47754 19.94 7.07001L20 7.89948C20 10.062 19.84 11.6518 19.56 12.6689C19.31 13.5576 18.73 14.1303 17.83 14.3772C17.36 14.5055 16.5 14.5944 15.18 14.6537C13.88 14.7228 12.69 14.7524 11.59 14.7524L10 14.8116C5.81 14.8116 3.2 14.6537 2.17 14.3772C1.27 14.1303 0.69 13.5576 0.44 12.6689C0.31 12.2048 0.22 11.5827 0.16 10.7927C0.0900001 10.0028 0.0599999 9.32141 0.0599999 8.72894L0 7.89948C0 5.73695 0.16 4.14715 0.44 3.13008C0.69 2.24137 1.27 1.66865 2.17 1.42178C2.64 1.29342 3.5 1.20454 4.82 1.1453C6.12 1.07618 7.31 1.04655 8.41 1.04655L10 0.987305C14.19 0.987305 16.8 1.1453 17.83 1.42178C18.73 1.66865 19.31 2.24137 19.56 3.13008Z" fill="white"/>
</svg>
